<svg xmlns="http://www.w3.org/2000/svg">
  <symbol id="search" viewBox="0 0 24 24">
    <circle cx="11" cy="11" r="6.5" fill="none" stroke="currentColor" stroke-width="2"/>
    <path d="m16 16 5 5" fill="none" stroke="currentColor" stroke-linecap="round" stroke-width="2"/>
  </symbol>
  <symbol id="theme" viewBox="0 0 24 24">
    <path d="M12 3a9 9 0 1 0 9 9 7 7 0 0 1-9-9Z" fill="none" stroke="currentColor" stroke-linejoin="round" stroke-width="2"/>
  </symbol>
  <symbol id="close" viewBox="0 0 24 24">
    <path d="m5 5 14 14M19 5 5 19" fill="none" stroke="currentColor" stroke-linecap="round" stroke-width="2"/>
  </symbol>
  <symbol id="arrow-left" viewBox="0 0 24 24">
    <path d="m15 5-7 7 7 7M8 12h12" fill="none" stroke="currentColor" stroke-linecap="round" stroke-linejoin="round" stroke-width="2"/>
  </symbol>
  <symbol id="arrow-right" viewBox="0 0 24 24">
    <path d="m9 5 7 7-7 7M4 12h12" fill="none" stroke="currentColor" stroke-linecap="round" stroke-linejoin="round" stroke-width="2"/>
  </symbol>
  <symbol id="home" viewBox="0 0 24 24">
    <path d="m3 11 9-8 9 8v10h-6v-6H9v6H3Z" fill="none" stroke="currentColor" stroke-linejoin="round" stroke-width="2"/>
  </symbol>
  <symbol id="tag" viewBox="0 0 24 24">
    <path d="M3 4v7l10 10 8-8L11 3H4a1 1 0 0 0-1 1Z" fill="none" stroke="currentColor" stroke-linejoin="round" stroke-width="2"/>
    <circle cx="7.5" cy="7.5" r="1.5" fill="currentColor"/>
  </symbol>
  <symbol id="category" viewBox="0 0 24 24">
    <rect x="3" y="3" width="7" height="7" rx="1" fill="none" stroke="currentColor" stroke-width="2"/>
    <rect x="14" y="3" width="7" height="7" rx="1" fill="none" stroke="currentColor" stroke-width="2"/>
    <rect x="3" y="14" width="7" height="7" rx="1" fill="none" stroke="currentColor" stroke-width="2"/>
    <rect x="14" y="14" width="7" height="7" rx="1" fill="none" stroke="currentColor" stroke-width="2"/>
  </symbol>
  <symbol id="user" viewBox="0 0 24 24">
    <circle cx="12" cy="8" r="4" fill="none" stroke="currentColor" stroke-width="2"/>
    <path d="M4 21a8 8 0 0 1 16 0" fill="none" stroke="currentColor" stroke-linecap="round" stroke-width="2"/>
  </symbol>
  <symbol id="calendar" viewBox="0 0 24 24">
    <rect x="3" y="5" width="18" height="16" rx="2" fill="none" stroke="currentColor" stroke-width="2"/>
    <path d="M7 3v4m10-4v4M3 10h18" fill="none" stroke="currentColor" stroke-width="2"/>
  </symbol>
  <symbol id="clock" viewBox="0 0 24 24">
    <circle cx="12" cy="12" r="9" fill="none" stroke="currentColor" stroke-width="2"/>
    <path d="M12 7v6l4 2" fill="none" stroke="currentColor" stroke-linecap="round" stroke-width="2"/>
  </symbol>
  <symbol id="edit" viewBox="0 0 24 24">
    <path d="m4 20 4.5-1L19 8.5 15.5 5 5 15.5 4 20Zm9.5-13L17 10" fill="none" stroke="currentColor" stroke-linejoin="round" stroke-width="2"/>
  </symbol>
  <symbol id="code" viewBox="0 0 24 24">
    <path d="m9 5-7 7 7 7m6-14 7 7-7 7" fill="none" stroke="currentColor" stroke-linecap="round" stroke-linejoin="round" stroke-width="2"/>
  </symbol>
  <symbol id="heart" viewBox="0 0 24 24">
    <path d="M12 21 3.5 12.5A5.5 5.5 0 0 1 12 5.7a5.5 5.5 0 0 1 8.5 6.8Z" fill="none" stroke="currentColor" stroke-linejoin="round" stroke-width="2"/>
  </symbol>
  <symbol id="power" viewBox="0 0 24 24">
    <path d="M12 3v9m-5.7-6.2a9 9 0 1 0 11.4 0" fill="none" stroke="currentColor" stroke-linecap="round" stroke-width="2"/>
  </symbol>
</svg>
