<!-- Font Awesome Free 6.2.0 icons: CC BY 4.0; Academicons 1.9.1 Google Scholar icon: SIL OFL 1.1. See ICON-LICENSES.md. -->
<svg xmlns="http://www.w3.org/2000/svg">
  <symbol id="search" viewBox="0 0 512 512"><path d="M416 208c0 45.9-14.9 88.3-40 122.7L502.6 457.4c12.5 12.5 12.5 32.8 0 45.3s-32.8 12.5-45.3 0L330.7 376c-34.4 25.2-76.8 40-122.7 40C93.1 416 0 322.9 0 208S93.1 0 208 0S416 93.1 416 208zM208 352c79.5 0 144-64.5 144-144s-64.5-144-144-144S64 128.5 64 208s64 144 144 144z"/></symbol>
  <symbol id="theme" viewBox="0 0 384 512"><path d="M223.5 32C100 32 0 132.3 0 256S100 480 223.5 480c60.6 0 115.5-24.2 155.8-63.4c5-4.9 6.3-12.5 3.1-18.7s-10.1-9.7-17-8.5c-9.8 1.7-19.8 2.6-30.1 2.6c-96.9 0-175.5-78.8-175.5-176c0-65.8 36-123.1 89.3-153.3c6.1-3.5 9.2-10.5 7.7-17.3s-7.3-11.9-14.3-12.5c-6.3-.5-12.6-.8-19-.8z"/></symbol>
  <symbol id="moon" viewBox="0 0 384 512"><path d="M223.5 32C100 32 0 132.3 0 256S100 480 223.5 480c60.6 0 115.5-24.2 155.8-63.4c5-4.9 6.3-12.5 3.1-18.7s-10.1-9.7-17-8.5c-9.8 1.7-19.8 2.6-30.1 2.6c-96.9 0-175.5-78.8-175.5-176c0-65.8 36-123.1 89.3-153.3c6.1-3.5 9.2-10.5 7.7-17.3s-7.3-11.9-14.3-12.5c-6.3-.5-12.6-.8-19-.8z"/></symbol>
  <symbol id="sun" viewBox="0 0 512 512"><path d="M361.5 1.2c5 2.1 8.6 6.6 9.6 11.9L391 121l107.9 19.8c5.3 1 9.8 4.6 11.9 9.6s1.5 10.7-1.6 15.2L446.9 256l62.3 90.3c3.1 4.5 3.7 10.2 1.6 15.2s-6.6 8.6-11.9 9.6L391 391 371.1 498.9c-1 5.3-4.6 9.8-9.6 11.9s-10.7 1.5-15.2-1.6L256 446.9l-90.3 62.3c-4.5 3.1-10.2 3.7-15.2 1.6s-8.6-6.6-9.6-11.9L121 391 13.1 371.1c-5.3-1-9.8-4.6-11.9-9.6s-1.5-10.7 1.6-15.2L65.1 256 2.8 165.7c-3.1-4.5-3.7-10.2-1.6-15.2s6.6-8.6 11.9-9.6L121 121 140.9 13.1c1-5.3 4.6-9.8 9.6-11.9s10.7-1.5 15.2 1.6L256 65.1 346.3 2.8c4.5-3.1 10.2-3.7 15.2-1.6zM352 256c0 53-43 96-96 96s-96-43-96-96s43-96 96-96s96 43 96 96zm32 0c0-70.7-57.3-128-128-128s-128 57.3-128 128s57.3 128 128 128s128-57.3 128-128z"/></symbol>
  <symbol id="close" viewBox="0 0 320 512"><path d="M310.6 150.6c12.5-12.5 12.5-32.8 0-45.3s-32.8-12.5-45.3 0L160 210.7 54.6 105.4c-12.5-12.5-32.8-12.5-45.3 0s-12.5 32.8 0 45.3L114.7 256 9.4 361.4c-12.5 12.5-12.5 32.8 0 45.3s32.8 12.5 45.3 0L160 301.3 265.4 406.6c12.5 12.5 32.8 12.5 45.3 0s12.5-32.8 0-45.3L205.3 256 310.6 150.6z"/></symbol>
  <symbol id="arrow-left" viewBox="0 0 448 512"><path d="M9.4 233.4c-12.5 12.5-12.5 32.8 0 45.3l160 160c12.5 12.5 32.8 12.5 45.3 0s12.5-32.8 0-45.3L109.2 288 416 288c17.7 0 32-14.3 32-32s-14.3-32-32-32l-306.7 0L214.6 118.6c12.5-12.5 12.5-32.8 0-45.3s-32.8-12.5-45.3 0l-160 160z"/></symbol>
  <symbol id="arrow-right" viewBox="0 0 448 512"><path d="M438.6 278.6c12.5-12.5 12.5-32.8 0-45.3l-160-160c-12.5-12.5-32.8-12.5-45.3 0s-12.5 32.8 0 45.3L338.8 224 32 224c-17.7 0-32 14.3-32 32s14.3 32 32 32l306.7 0L233.4 393.4c-12.5 12.5-12.5 32.8 0 45.3s32.8 12.5 45.3 0l160-160z"/></symbol>
  <symbol id="home" viewBox="0 0 576 512"><path d="M575.8 255.5c0 18-15 32.1-32 32.1h-32l.7 160.2c0 2.7-.2 5.4-.5 8.1V472c0 22.1-17.9 40-40 40H456c-1.1 0-2.2 0-3.3-.1c-1.4.1-2.8.1-4.2.1H416 392c-22.1 0-40-17.9-40-40V448 384c0-17.7-14.3-32-32-32H256c-17.7 0-32 14.3-32 32v64 24c0 22.1-17.9 40-40 40H160 128.1c-1.5 0-3-.1-4.5-.2c-1.2.1-2.4.2-3.6.2H104c-22.1 0-40-17.9-40-40V360c0-.9 0-1.9.1-2.8V287.6H32c-18 0-32-14-32-32.1c0-9 3-17 10-24L266.4 8c7-7 15-8 22-8s15 2 21 7L564.8 231.5c8 7 12 15 11 24z"/></symbol>
  <symbol id="tag" viewBox="0 0 448 512"><path d="M0 80V229.5c0 17 6.7 33.3 18.7 45.3l176 176c25 25 65.5 25 90.5 0L418.7 317.3c25-25 25-65.5 0-90.5l-176-176c-12-12-28.3-18.7-45.3-18.7H48C21.5 32 0 53.5 0 80zm112 96c-17.7 0-32-14.3-32-32s14.3-32 32-32s32 14.3 32 32s-14.3 32-32 32z"/></symbol>
  <symbol id="tags" viewBox="0 0 512 512"><path d="M345 39.1L472.8 168.4c52.4 53 52.4 138.2 0 191.2L360.8 472.9c-9.3 9.4-24.5 9.5-33.9 .2s-9.5-24.5-.2-33.9L438.6 325.9c33.9-34.3 33.9-89.4 0-123.7L310.9 72.9c-9.3-9.4-9.2-24.6 .2-33.9s24.6-9.2 33.9 .2zM0 229.5V80C0 53.5 21.5 32 48 32H197.5c17 0 33.3 6.7 45.3 18.7l168 168c25 25 25 65.5 0 90.5L277.3 442.7c-25 25-65.5 25-90.5 0l-168-168C6.7 262.7 0 246.5 0 229.5zM144 144c0-17.7-14.3-32-32-32s-32 14.3-32 32s14.3 32 32 32s32-14.3 32-32z"/></symbol>
  <symbol id="category" viewBox="0 0 512 512"><path d="M234.5 5.7c13.9-5 29.1-5 43.1 0l192 68.6C495 83.4 512 107.5 512 134.6V377.4c0 27-17 51.2-42.5 60.3l-192 68.6c-13.9 5-29.1 5-43.1 0l-192-68.6C17 428.6 0 404.5 0 377.4V134.6c0-27 17-51.2 42.5-60.3l192-68.6zM256 66L82.3 128 256 190l173.7-62L256 66zm32 368.6l160-57.1v-188L288 246.6v188z"/></symbol>
  <symbol id="categories" viewBox="0 0 576 512"><path d="M290.8 48.6l78.4 29.7L288 109.5 206.8 78.3l78.4-29.7c1.8-.7 3.8-.7 5.7 0zM136 92.5V204.7c-1.3 .4-2.6 .8-3.9 1.3l-96 36.4C14.4 250.6 0 271.5 0 294.7V413.9c0 22.2 13.1 42.3 33.5 51.3l96 42.2c14.4 6.3 30.7 6.3 45.1 0L288 457.5l113.5 49.9c14.4 6.3 30.7 6.3 45.1 0l96-42.2c20.3-8.9 33.5-29.1 33.5-51.3V294.7c0-23.3-14.4-44.1-36.1-52.4l-96-36.4c-1.3-.5-2.6-.9-3.9-1.3V92.5c0-23.3-14.4-44.1-36.1-52.4l-96-36.4c-12.8-4.8-26.9-4.8-39.7 0l-96 36.4C150.4 48.4 136 69.3 136 92.5zM392 210.6l-82.4 31.2V152.6L392 121v89.6zM154.8 250.9l78.4 29.7L152 311.7 70.8 280.6l78.4-29.7c1.8-.7 3.8-.7 5.7 0zm18.8 204.4V354.8L256 323.2v95.9l-82.4 36.2zM421.2 250.9c1.8-.7 3.8-.7 5.7 0l78.4 29.7L424 311.7l-81.2-31.1 78.4-29.7zM523.2 421.2l-77.6 34.1V354.8L528 323.2v90.7c0 3.2-1.9 6-4.8 7.3z"/></symbol>
  <symbol id="user" viewBox="0 0 448 512"><path d="M224 256c70.7 0 128-57.3 128-128S294.7 0 224 0S96 57.3 96 128s57.3 128 128 128zm-45.7 48C79.8 304 0 383.8 0 482.3C0 498.7 13.3 512 29.7 512H418.3c16.4 0 29.7-13.3 29.7-29.7C448 383.8 368.2 304 269.7 304H178.3z"/></symbol>
  <symbol id="calendar" viewBox="0 0 448 512"><path d="M152 64H296V24C296 10.75 306.7 0 320 0C333.3 0 344 10.75 344 24V64H384C419.3 64 448 92.65 448 128V448C448 483.3 419.3 512 384 512H64C28.65 512 0 483.3 0 448V128C0 92.65 28.65 64 64 64H104V24C104 10.75 114.7 0 128 0C141.3 0 152 10.75 152 24V64zM48 248H128V192H48V248zM48 296V360H128V296H48zM176 296V360H272V296H176zM320 296V360H400V296H320zM400 192H320V248H400V192zM400 408H320V464H384C392.8 464 400 456.8 400 448V408zM272 408H176V464H272V408zM128 408H48V448C48 456.8 55.16 464 64 464H128V408zM272 192H176V248H272V192z"/></symbol>
  <symbol id="clock" viewBox="0 0 512 512"><path d="M232 120C232 106.7 242.7 96 256 96C269.3 96 280 106.7 280 120V243.2L365.3 300C376.3 307.4 379.3 322.3 371.1 333.3C364.6 344.3 349.7 347.3 338.7 339.1L242.7 275.1C236 271.5 232 264 232 255.1L232 120zM256 0C397.4 0 512 114.6 512 256C512 397.4 397.4 512 256 512C114.6 512 0 397.4 0 256C0 114.6 114.6 0 256 0zM48 256C48 370.9 141.1 464 256 464C370.9 464 464 370.9 464 256C464 141.1 370.9 48 256 48C141.1 48 48 141.1 48 256z"/></symbol>
  <symbol id="edit" viewBox="0 0 512 512"><path d="M421.7 220.3l-11.3 11.3-22.6 22.6-205 205c-6.6 6.6-14.8 11.5-23.8 14.1L30.8 511c-8.4 2.5-17.5.2-23.7-6.1S-1.5 489.7 1 481.2L38.7 353.1c2.6-9 7.5-17.2 14.1-23.8l205-205 22.6-22.6 11.3-11.3 33.9 33.9 62.1 62.1 33.9 33.9zM96 353.9l-9.3 9.3c-.9.9-1.6 2.1-2 3.4l-25.3 86 86-25.3c1.3-.4 2.5-1.1 3.4-2l9.3-9.3H112c-8.8 0-16-7.2-16-16V353.9zM453.3 19.3l39.4 39.4c25 25 25 65.5 0 90.5l-14.5 14.5-22.6 22.6-11.3 11.3-33.9-33.9-62.1-62.1L314.3 67.7l11.3-11.3 22.6-22.6 14.5-14.5c25-25 65.5-25 90.5 0z"/></symbol>
  <symbol id="code" viewBox="0 0 640 512"><path d="M392.8 1.2c-17-4.9-34.7 5-39.6 22l-128 448c-4.9 17 5 34.7 22 39.6s34.7-5 39.6-22l128-448c4.9-17-5-34.7-22-39.6zm80.6 120.1c-12.5 12.5-12.5 32.8 0 45.3L562.7 256l-89.4 89.4c-12.5 12.5-12.5 32.8 0 45.3s32.8 12.5 45.3 0l112-112c12.5-12.5 12.5-32.8 0-45.3l-112-112c-12.5-12.5-32.8-12.5-45.3 0zm-306.7 0c-12.5-12.5-32.8-12.5-45.3 0l-112 112c-12.5 12.5-12.5 32.8 0 45.3l112 112c12.5 12.5 32.8 12.5 45.3 0s12.5-32.8 0-45.3L77.3 256l89.4-89.4c12.5-12.5 12.5-32.8 0-45.3z"/></symbol>
  <symbol id="heart" viewBox="0 0 512 512"><path d="M47.6 300.4L228.3 469.1c7.5 7 17.4 10.9 27.7 10.9s20.2-3.9 27.7-10.9L464.4 300.4c30.4-28.3 47.6-68 47.6-109.5v-5.8c0-69.9-50.5-129.5-119.4-141C347 36.5 300.6 51.4 268 84L256 96 244 84c-32.6-32.6-79-47.5-124.6-39.9C50.5 55.6 0 115.2 0 185.1v5.8c0 41.5 17.2 81.2 47.6 109.5z"/></symbol>
  <symbol id="power" viewBox="0 0 512 512"><path d="M288 32c0-17.7-14.3-32-32-32s-32 14.3-32 32V256c0 17.7 14.3 32 32 32s32-14.3 32-32V32zM143.5 120.6c13.6-11.3 15.4-31.5 4.1-45.1s-31.5-15.4-45.1-4.1C49.7 115.4 16 181.8 16 256c0 132.5 107.5 240 240 240s240-107.5 240-240c0-74.2-33.8-140.6-86.6-184.6c-13.6-11.3-33.8-9.4-45.1 4.1s-9.4 33.8 4.1 45.1c38.9 32.3 63.5 81 63.5 135.4c0 97.2-78.8 176-176 176s-176-78.8-176-176c0-54.4 24.7-103.1 63.5-135.4z"/></symbol>
  <symbol id="envelope" viewBox="0 0 512 512"><path d="M0 128C0 92.65 28.65 64 64 64H448C483.3 64 512 92.65 512 128V384C512 419.3 483.3 448 448 448H64C28.65 448 0 419.3 0 384V128zM48 128V150.1L220.5 291.7C241.1 308.7 270.9 308.7 291.5 291.7L464 150.1V127.1C464 119.2 456.8 111.1 448 111.1H64C55.16 111.1 48 119.2 48 127.1L48 128zM48 212.2V384C48 392.8 55.16 400 64 400H448C456.8 400 464 392.8 464 384V212.2L322 328.8C283.6 360.3 228.4 360.3 189.1 328.8L48 212.2z"/></symbol>
  <symbol id="rss" viewBox="0 0 448 512"><path d="M0 64C0 46.3 14.3 32 32 32c229.8 0 416 186.2 416 416c0 17.7-14.3 32-32 32s-32-14.3-32-32C384 253.6 226.4 96 32 96C14.3 96 0 81.7 0 64zM128 416c0 35.3-28.7 64-64 64s-64-28.7-64-64s28.7-64 64-64s64 28.7 64 64zM32 160c159.1 0 288 128.9 288 288c0 17.7-14.3 32-32 32s-32-14.3-32-32c0-123.7-100.3-224-224-224c-17.7 0-32-14.3-32-32s14.3-32 32-32z"/></symbol>
  <symbol id="brand-facebook" viewBox="0 0 512 512"><path d="M504 256C504 119 393 8 256 8S8 119 8 256c0 123.78 90.69 226.38 209.25 245V327.69h-63V256h63v-54.64c0-62.15 37-96.48 93.67-96.48 27.14 0 55.52 4.84 55.52 4.84v61h-31.28c-30.8 0-40.41 19.12-40.41 38.73V256h68.78l-11 71.69h-57.78V501C413.31 482.38 504 379.78 504 256z"/></symbol>
  <symbol id="brand-twitter" viewBox="0 0 512 512"><path d="M459.37 151.716c.325 4.548.325 9.097.325 13.645 0 138.72-105.583 298.558-298.558 298.558-59.452 0-114.68-17.219-161.137-47.106 8.447.974 16.568 1.299 25.34 1.299 49.055 0 94.213-16.568 130.274-44.832-46.132-.975-84.792-31.188-98.112-72.772 6.498.974 12.995 1.624 19.818 1.624 9.421 0 18.843-1.3 27.614-3.573-48.081-9.747-84.143-51.98-84.143-102.985v-1.299c13.969 7.797 30.214 12.67 47.431 13.319-28.264-18.843-46.781-51.005-46.781-87.391 0-19.492 5.197-37.36 14.294-52.954 51.655 63.675 129.3 105.258 216.365 109.807-1.624-7.797-2.599-15.918-2.599-24.04 0-57.828 46.782-104.934 104.934-104.934 30.213 0 57.502 12.67 76.67 33.137 23.715-4.548 46.456-13.32 66.599-25.34-7.798 24.366-24.366 44.833-46.132 57.827 21.117-2.273 41.584-8.122 60.426-16.243-14.292 20.791-32.161 39.308-52.628 54.253z"/></symbol>
  <symbol id="brand-linkedin" viewBox="0 0 448 512"><path d="M416 32H31.9C14.3 32 0 46.5 0 64.3v383.4C0 465.5 14.3 480 31.9 480H416c17.6 0 32-14.5 32-32.3V64.3c0-17.8-14.4-32.3-32-32.3zM135.4 416H69V202.2h66.5V416zm-33.2-243c-21.3 0-38.5-17.3-38.5-38.5S80.9 96 102.2 96c21.2 0 38.5 17.3 38.5 38.5 0 21.3-17.2 38.5-38.5 38.5zm282.1 243h-66.4V312c0-24.8-.5-56.7-34.5-56.7-34.6 0-39.9 27-39.9 54.9V416h-66.4V202.2h63.7v29.2h.9c8.9-16.8 30.6-34.5 62.9-34.5 67.2 0 79.7 44.3 79.7 101.9V416z"/></symbol>
  <symbol id="brand-instagram" viewBox="0 0 448 512"><path d="M224.1 141c-63.6 0-114.9 51.3-114.9 114.9s51.3 114.9 114.9 114.9S339 319.5 339 255.9 287.7 141 224.1 141zm0 189.6c-41.1 0-74.7-33.5-74.7-74.7s33.5-74.7 74.7-74.7 74.7 33.5 74.7 74.7-33.6 74.7-74.7 74.7zm146.4-194.3c0 14.9-12 26.8-26.8 26.8-14.9 0-26.8-12-26.8-26.8s12-26.8 26.8-26.8 26.8 12 26.8 26.8zm76.1 27.2c-1.7-35.9-9.9-67.7-36.2-93.9-26.2-26.2-58-34.4-93.9-36.2-37-2.1-147.9-2.1-184.9 0-35.8 1.7-67.6 9.9-93.9 36.1s-34.4 58-36.2 93.9c-2.1 37-2.1 147.9 0 184.9 1.7 35.9 9.9 67.7 36.2 93.9s58 34.4 93.9 36.2c37 2.1 147.9 2.1 184.9 0 35.9-1.7 67.7-9.9 93.9-36.2 26.2-26.2 34.4-58 36.2-93.9 2.1-37 2.1-147.8 0-184.8zM398.8 388c-7.8 19.6-22.9 34.7-42.6 42.6-29.5 11.7-99.5 9-132.1 9s-102.7 2.6-132.1-9c-19.6-7.8-34.7-22.9-42.6-42.6-11.7-29.5-9-99.5-9-132.1s-2.6-102.7 9-132.1c7.8-19.6 22.9-34.7 42.6-42.6 29.5-11.7 99.5-9 132.1-9s102.7-2.6 132.1 9c19.6 7.8 34.7 22.9 42.6 42.6 11.7 29.5 9 99.5 9 132.1s2.7 102.7-9 132.1z"/></symbol>
  <symbol id="brand-twitch" viewBox="0 0 512 512"><path d="M391.17,103.47H352.54v109.7h38.63ZM285,103H246.37V212.75H285ZM120.83,0,24.31,91.42V420.58H140.14V512l96.53-91.42h77.25L487.69,256V0ZM449.07,237.75l-77.22,73.12H294.61l-67.6,64v-64H140.14V36.58H449.07Z"/></symbol>
  <symbol id="brand-tumblr" viewBox="0 0 320 512"><path d="M309.8 480.3c-13.6 14.5-50 31.7-97.4 31.7-120.8 0-147-88.8-147-140.6v-144H17.9c-5.5 0-10-4.5-10-10v-68c0-7.2 4.5-13.6 11.3-16 62-21.8 81.5-76 84.3-117.1.8-11 6.5-16.3 16.1-16.3h70.9c5.5 0 10 4.5 10 10v115.2h83c5.5 0 10 4.4 10 9.9v81.7c0 5.5-4.5 10-10 10h-83.4V360c0 34.2 23.7 53.6 68 35.8 4.8-1.9 9-3.2 12.7-2.2 3.5.9 5.8 3.4 7.4 7.9l22 64.3c1.8 5 3.3 10.6-.4 14.5z"/></symbol>
  <symbol id="brand-reddit" viewBox="0 0 512 512"><path d="M201.5 305.5c-13.8 0-24.9-11.1-24.9-24.6 0-13.8 11.1-24.9 24.9-24.9 13.6 0 24.6 11.1 24.6 24.9 0 13.6-11.1 24.6-24.6 24.6zM504 256c0 137-111 248-248 248S8 393 8 256 119 8 256 8s248 111 248 248zm-132.3-41.2c-9.4 0-17.7 3.9-23.8 10-22.4-15.5-52.6-25.5-86.1-26.6l17.4-78.3 55.4 12.5c0 13.6 11.1 24.6 24.6 24.6 13.8 0 24.9-11.3 24.9-24.9s-11.1-24.9-24.9-24.9c-9.7 0-18 5.8-22.1 13.8l-61.2-13.6c-3-.8-6.1 1.4-6.9 4.4l-19.1 86.4c-33.2 1.4-63.1 11.3-85.5 26.8-6.1-6.4-14.7-10.2-24.1-10.2-34.9 0-46.3 46.9-14.4 62.8-1.1 5-1.7 10.2-1.7 15.5 0 52.6 59.2 95.2 132 95.2 73.1 0 132.3-42.6 132.3-95.2 0-5.3-.6-10.8-1.9-15.8 31.3-16 19.8-62.5-14.9-62.5zM302.8 331c-18.2 18.2-76.1 17.9-93.6 0-2.2-2.2-6.1-2.2-8.3 0-2.5 2.5-2.5 6.4 0 8.6 22.8 22.8 87.3 22.8 110.2 0 2.5-2.2 2.5-6.1 0-8.6-2.2-2.2-6.1-2.2-8.3 0zm7.7-75c-13.6 0-24.6 11.1-24.6 24.9 0 13.6 11.1 24.6 24.6 24.6 13.8 0 24.9-11.1 24.9-24.6 0-13.8-11-24.9-24.9-24.9z"/></symbol>
  <symbol id="brand-discord" viewBox="0 0 640 512"><path d="M524.531,69.836a1.5,1.5,0,0,0-.764-.7A485.065,485.065,0,0,0,404.081,32.03a1.816,1.816,0,0,0-1.923.91,337.461,337.461,0,0,0-14.9,30.6,447.848,447.848,0,0,0-134.426,0,309.541,309.541,0,0,0-15.135-30.6,1.89,1.89,0,0,0-1.924-.91A483.689,483.689,0,0,0,116.085,69.137a1.712,1.712,0,0,0-.788.676C39.068,183.651,18.186,294.69,28.43,404.354a2.016,2.016,0,0,0,.765,1.375A487.666,487.666,0,0,0,176.02,479.918a1.9,1.9,0,0,0,2.063-.676A348.2,348.2,0,0,0,208.12,430.4a1.86,1.86,0,0,0-1.019-2.588,321.173,321.173,0,0,1-45.868-21.853,1.885,1.885,0,0,1-.185-3.126c3.082-2.309,6.166-4.711,9.109-7.137a1.819,1.819,0,0,1,1.9-.256c96.229,43.917,200.41,43.917,295.5,0a1.812,1.812,0,0,1,1.924.233c2.944,2.426,6.027,4.851,9.132,7.16a1.884,1.884,0,0,1-.162,3.126,301.407,301.407,0,0,1-45.89,21.83,1.875,1.875,0,0,0-1,2.611,391.055,391.055,0,0,0,30.014,48.815,1.864,1.864,0,0,0,2.063.7A486.048,486.048,0,0,0,610.7,405.729a1.882,1.882,0,0,0,.765-1.352C623.729,277.594,590.933,167.465,524.531,69.836ZM222.491,337.58c-28.972,0-52.844-26.587-52.844-59.239S193.056,219.1,222.491,219.1c29.665,0,53.306,26.82,52.843,59.239C275.334,310.993,251.924,337.58,222.491,337.58Zm195.38,0c-28.971,0-52.843-26.587-52.843-59.239S388.437,219.1,417.871,219.1c29.667,0,53.307,26.82,52.844,59.239C470.715,310.993,447.538,337.58,417.871,337.58Z"/></symbol>
  <symbol id="brand-mastodon" viewBox="0 0 448 512"><path d="M433 179.11c0-97.2-63.71-125.7-63.71-125.7-62.52-28.7-228.56-28.4-290.48 0 0 0-63.72 28.5-63.72 125.7 0 115.7-6.6 259.4 105.63 289.1 40.51 10.7 75.32 13 103.33 11.4 50.81-2.8 79.32-18.1 79.32-18.1l-1.7-36.9s-36.31 11.4-77.12 10.1c-40.41-1.4-83-4.4-89.63-54a102.54 102.54 0 0 1-.9-13.9c85.63 20.9 158.65 9.1 178.75 6.7 56.12-6.7 105-41.3 111.23-72.9 9.8-49.8 9-121.5 9-121.5zm-75.12 125.2h-46.63v-114.2c0-49.7-64-51.6-64 6.9v62.5h-46.33V197c0-58.5-64-56.6-64-6.9v114.2H90.19c0-122.1-5.2-147.9 18.41-175 25.9-28.9 79.82-30.8 103.83 6.1l11.6 19.5 11.6-19.5c24.11-37.1 78.12-34.8 103.83-6.1 23.71 27.3 18.4 53 18.4 175z"/></symbol>
  <symbol id="brand-github" viewBox="0 0 496 512"><path d="M165.9 397.4c0 2-2.3 3.6-5.2 3.6-3.3.3-5.6-1.3-5.6-3.6 0-2 2.3-3.6 5.2-3.6 3-.3 5.6 1.3 5.6 3.6zm-31.1-4.5c-.7 2 1.3 4.3 4.3 4.9 2.6 1 5.6 0 6.2-2s-1.3-4.3-4.3-5.2c-2.6-.7-5.5.3-6.2 2.3zm44.2-1.7c-2.9.7-4.9 2.6-4.6 4.9.3 2 2.9 3.3 5.9 2.6 2.9-.7 4.9-2.6 4.6-4.6-.3-1.9-3-3.2-5.9-2.9zM244.8 8C106.1 8 0 113.3 0 252c0 110.9 69.8 205.8 169.5 239.2 12.8 2.3 17.3-5.6 17.3-12.1 0-6.2-.3-40.4-.3-61.4 0 0-70 15-84.7-29.8 0 0-11.4-29.1-27.8-36.6 0 0-22.9-15.7 1.6-15.4 0 0 24.9 2 38.6 25.8 21.9 38.6 58.6 27.5 72.9 20.9 2.3-16 8.8-27.1 16-33.7-55.9-6.2-112.3-14.3-112.3-110.5 0-27.5 7.6-41.3 23.6-58.9-2.6-6.5-11.1-33.3 2.6-67.9 20.9-6.5 69 27 69 27 20-5.6 41.5-8.5 62.8-8.5s42.8 2.9 62.8 8.5c0 0 48.1-33.6 69-27 13.7 34.7 5.2 61.4 2.6 67.9 16 17.7 25.8 31.5 25.8 58.9 0 96.5-58.9 104.2-114.8 110.5 9.2 7.9 17 22.9 17 46.4 0 33.7-.3 75.4-.3 83.6 0 6.5 4.6 14.4 17.3 12.1C428.2 457.8 496 362.9 496 252 496 113.3 383.5 8 244.8 8zM97.2 352.9c-1.3 1-1 3.3.7 5.2 1.6 1.6 3.9 2.3 5.2 1 1.3-1 1-3.3-.7-5.2-1.6-1.6-3.9-2.3-5.2-1zm-10.8-8.1c-.7 1.3.3 2.9 2.3 3.9 1.6 1 3.6.7 4.3-.7.7-1.3-.3-2.9-2.3-3.9-2-.6-3.6-.3-4.3.7zm32.4 35.6c-1.6 1.3-1 4.3 1.3 6.2 2.3 2.3 5.2 2.6 6.5 1 1.3-1.3.7-4.3-1.3-6.2-2.2-2.3-5.2-2.6-6.5-1zm-11.4-14.7c-1.6 1-1.6 3.6 0 5.9 1.6 2.3 4.3 3.3 5.6 2.3 1.6-1.3 1.6-3.9 0-6.2-1.4-2.3-4-3.3-5.6-2z"/></symbol>
  <symbol id="brand-bitbucket" viewBox="0 0 512 512"><path d="M22.2 32A16 16 0 0 0 6 47.8a26.35 26.35 0 0 0 .2 2.8l67.9 412.1a21.77 21.77 0 0 0 21.3 18.2h325.7a16 16 0 0 0 16-13.4L505 50.7a16 16 0 0 0-13.2-18.3 24.58 24.58 0 0 0-2.8-.2L22.2 32zm285.9 297.8h-104l-28.1-147h157.3l-25.2 147z"/></symbol>
  <symbol id="brand-gitlab" viewBox="0 0 512 512"><path d="M503.5 204.6L502.8 202.8L433.1 21.02C431.7 17.45 429.2 14.43 425.9 12.38C423.5 10.83 420.8 9.865 417.9 9.57C415 9.275 412.2 9.653 409.5 10.68C406.8 11.7 404.4 13.34 402.4 15.46C400.5 17.58 399.1 20.13 398.3 22.9L351.3 166.9H160.8L113.7 22.9C112.9 20.13 111.5 17.59 109.6 15.47C107.6 13.35 105.2 11.72 102.5 10.7C99.86 9.675 96.98 9.295 94.12 9.587C91.26 9.878 88.51 10.83 86.08 12.38C82.84 14.43 80.33 17.45 78.92 21.02L9.267 202.8L8.543 204.6C-1.484 230.8-2.72 259.6 5.023 286.6C12.77 313.5 29.07 337.3 51.47 354.2L51.74 354.4L52.33 354.8L158.3 434.3L210.9 474L242.9 498.2C246.6 500.1 251.2 502.5 255.9 502.5C260.6 502.5 265.2 500.1 268.9 498.2L300.9 474L353.5 434.3L460.2 354.4L460.5 354.1C482.9 337.2 499.2 313.5 506.1 286.6C514.7 259.6 513.5 230.8 503.5 204.6z"/></symbol>
  <symbol id="brand-behance" viewBox="0 0 576 512"><path d="M232 237.2c31.8-15.2 48.4-38.2 48.4-74 0-70.6-52.6-87.8-113.3-87.8H0v354.4h171.8c64.4 0 124.9-30.9 124.9-102.9 0-44.5-21.1-77.4-64.7-89.7zM77.9 135.9H151c28.1 0 53.4 7.9 53.4 40.5 0 30.1-19.7 42.2-47.5 42.2h-79v-82.7zm83.3 233.7H77.9V272h84.9c34.3 0 56 14.3 56 50.6 0 35.8-25.9 47-57.6 47zm358.5-240.7H376V94h143.7v34.9zM576 305.2c0-75.9-44.4-139.2-124.9-139.2-78.2 0-131.3 58.8-131.3 135.8 0 79.9 50.3 134.7 131.3 134.7 61.3 0 101-27.6 120.1-86.3H509c-6.7 21.9-34.3 33.5-55.7 33.5-41.3 0-63-24.2-63-65.3h185.1c.3-4.2.6-8.7.6-13.2zM390.4 274c2.3-33.7 24.7-54.8 58.5-54.8 35.4 0 53.2 20.8 56.2 54.8H390.4z"/></symbol>
  <symbol id="brand-stack-overflow" viewBox="0 0 384 512"><path d="M290.7 311L95 269.7 86.8 309l195.7 41zm51-87L188.2 95.7l-25.5 30.8 153.5 128.3zm-31.2 39.7L129.2 179l-16.7 36.5L293.7 300zM262 32l-32 24 119.3 160.3 32-24zm20.5 328h-200v39.7h200zm39.7 80H42.7V320h-40v160h359.5V320h-40z"/></symbol>
  <symbol id="brand-medium" viewBox="0 0 640 512"><path d="M180.5,74.262C80.813,74.262,0,155.633,0,256S80.819,437.738,180.5,437.738,361,356.373,361,256,280.191,74.262,180.5,74.262Zm288.25,10.646c-49.845,0-90.245,76.619-90.245,171.095s40.406,171.1,90.251,171.1,90.251-76.619,90.251-171.1H559C559,161.5,518.6,84.908,468.752,84.908Zm139.506,17.821c-17.526,0-31.735,68.628-31.735,153.274s14.2,153.274,31.735,153.274S640,340.631,640,256C640,171.351,625.785,102.729,608.258,102.729Z"/></symbol>
  <symbol id="brand-dev" viewBox="0 0 448 512"><path d="M120.12 208.29c-3.88-2.9-7.77-4.35-11.65-4.35H91.03v104.47h17.45c3.88 0 7.77-1.45 11.65-4.35 3.88-2.9 5.82-7.25 5.82-13.06v-69.65c-.01-5.8-1.96-10.16-5.83-13.06zM404.1 32H43.9C19.7 32 .06 51.59 0 75.8v360.4C.06 460.41 19.7 480 43.9 480h360.2c24.21 0 43.84-19.59 43.9-43.8V75.8c-.06-24.21-19.7-43.8-43.9-43.8zM154.2 291.19c0 18.81-11.61 47.31-48.36 47.25h-46.4V172.98h47.38c35.44 0 47.36 28.46 47.37 47.28l.01 70.93zm100.68-88.66H201.6v38.42h32.57v29.57H201.6v38.41h53.29v29.57h-62.18c-11.16.29-20.44-8.53-20.72-19.69V193.7c-.27-11.15 8.56-20.41 19.71-20.69h63.19l-.01 29.52zm103.64 115.29c-13.2 30.75-36.85 24.63-47.44 0l-38.53-144.8h32.57l29.71 113.72 29.57-113.72h32.58l-38.46 144.8z"/></symbol>
  <symbol id="brand-soundcloud" viewBox="0 0 640 512"><path d="M111.4 256.3l5.8 65-5.8 68.3c-.3 2.5-2.2 4.4-4.4 4.4s-4.2-1.9-4.2-4.4l-5.6-68.3 5.6-65c0-2.2 1.9-4.2 4.2-4.2 2.2 0 4.1 2 4.4 4.2zm21.4-45.6c-2.8 0-4.7 2.2-5 5l-5 105.6 5 68.3c.3 2.8 2.2 5 5 5 2.5 0 4.7-2.2 4.7-5l5.8-68.3-5.8-105.6c0-2.8-2.2-5-4.7-5zm25.5-24.1c-3.1 0-5.3 2.2-5.6 5.3l-4.4 130 4.4 67.8c.3 3.1 2.5 5.3 5.6 5.3 2.8 0 5.3-2.2 5.3-5.3l5.3-67.8-5.3-130c0-3.1-2.5-5.3-5.3-5.3zM7.2 283.2c-1.4 0-2.2 1.1-2.5 2.5L0 321.3l4.7 35c.3 1.4 1.1 2.5 2.5 2.5s2.2-1.1 2.5-2.5l5.6-35-5.6-35.6c-.3-1.4-1.1-2.5-2.5-2.5zm23.6-21.9c-1.4 0-2.5 1.1-2.5 2.5l-6.4 57.5 6.4 56.1c0 1.7 1.1 2.8 2.5 2.8s2.5-1.1 2.8-2.5l7.2-56.4-7.2-57.5c-.3-1.4-1.4-2.5-2.8-2.5zm25.3-11.4c-1.7 0-3.1 1.4-3.3 3.3L47 321.3l5.8 65.8c.3 1.7 1.7 3.1 3.3 3.1 1.7 0 3.1-1.4 3.1-3.1l6.9-65.8-6.9-68.1c0-1.9-1.4-3.3-3.1-3.3zm25.3-2.2c-1.9 0-3.6 1.4-3.6 3.6l-5.8 70 5.8 67.8c0 2.2 1.7 3.6 3.6 3.6s3.6-1.4 3.9-3.6l6.4-67.8-6.4-70c-.3-2.2-2-3.6-3.9-3.6zm241.4-110.9c-1.1-.8-2.8-1.4-4.2-1.4-2.2 0-4.2.8-5.6 1.9-1.9 1.7-3.1 4.2-3.3 6.7v.8l-3.3 176.7 1.7 32.5 1.7 31.7c.3 4.7 4.2 8.6 8.9 8.6s8.6-3.9 8.6-8.6l3.9-64.2-3.9-177.5c-.4-3-2-5.8-4.5-7.2zm-26.7 15.3c-1.4-.8-2.8-1.4-4.4-1.4s-3.1.6-4.4 1.4c-2.2 1.4-3.6 3.9-3.6 6.7l-.3 1.7-2.8 160.8s0 .3 3.1 65.6v.3c0 1.7.6 3.3 1.7 4.7 1.7 1.9 3.9 3.1 6.4 3.1 2.2 0 4.2-1.1 5.6-2.5 1.7-1.4 2.5-3.3 2.5-5.6l.3-6.7 3.1-58.6-3.3-162.8c-.3-2.8-1.7-5.3-3.9-6.7zm-111.4 22.5c-3.1 0-5.8 2.8-5.8 6.1l-4.4 140.6 4.4 67.2c.3 3.3 2.8 5.8 5.8 5.8 3.3 0 5.8-2.5 6.1-5.8l5-67.2-5-140.6c-.2-3.3-2.7-6.1-6.1-6.1zm376.7 62.8c-10.8 0-21.1 2.2-30.6 6.1-6.4-70.8-65.8-126.4-138.3-126.4-17.8 0-35 3.3-50.3 9.4-6.1 2.2-7.8 4.4-7.8 9.2v249.7c0 5 3.9 8.6 8.6 9.2h218.3c43.3 0 78.6-35 78.6-78.3.1-43.6-35.2-78.9-78.5-78.9zm-296.7-60.3c-4.2 0-7.5 3.3-7.8 7.8l-3.3 136.7 3.3 65.6c.3 4.2 3.6 7.5 7.8 7.5 4.2 0 7.5-3.3 7.5-7.5l3.9-65.6-3.9-136.7c-.3-4.5-3.3-7.8-7.5-7.8zm-53.6-7.8c-3.3 0-6.4 3.1-6.4 6.7l-3.9 145.3 3.9 66.9c.3 3.6 3.1 6.4 6.4 6.4 3.6 0 6.4-2.8 6.7-6.4l4.4-66.9-4.4-145.3c-.3-3.6-3.1-6.7-6.7-6.7zm26.7 3.4c-3.9 0-6.9 3.1-6.9 6.9L227 321.3l3.9 66.4c.3 3.9 3.1 6.9 6.9 6.9s6.9-3.1 6.9-6.9l4.2-66.4-4.2-141.7c0-3.9-3-6.9-6.9-6.9z"/></symbol>
  <symbol id="brand-orcid" viewBox="0 0 512 512"><path d="M294.75 188.19h-45.92V342h47.47c67.62 0 83.12-51.34 83.12-76.91 0-41.64-26.54-76.9-84.67-76.9zM256 8C119 8 8 119 8 256s111 248 248 248 248-111 248-248S393 8 256 8zm-80.79 360.76h-29.84v-207.5h29.84zm-14.92-231.14a19.57 19.57 0 1 1 19.57-19.57 19.64 19.64 0 0 1-19.57 19.57zM300 369h-81V161.26h80.6c76.73 0 110.44 54.83 110.44 103.85C410 318.39 368.38 369 300 369z"/></symbol>
  <symbol id="brand-keybase" viewBox="0 0 448 512"><path d="M286.17 419a18 18 0 1 0 18 18 18 18 0 0 0-18-18zm111.92-147.6c-9.5-14.62-39.37-52.45-87.26-73.71q-9.1-4.06-18.38-7.27a78.43 78.43 0 0 0-47.88-104.13c-12.41-4.1-23.33-6-32.41-5.77-.6-2-1.89-11 9.4-35L198.66 32l-5.48 7.56c-8.69 12.06-16.92 23.55-24.34 34.89a51 51 0 0 0-8.29-1.25c-41.53-2.45-39-2.33-41.06-2.33-50.61 0-50.75 52.12-50.75 45.88l-2.36 36.68c-1.61 27 19.75 50.21 47.63 51.85l8.93.54a214 214 0 0 0-46.29 35.54C14 304.66 14 374 14 429.77v33.64l23.32-29.8a148.6 148.6 0 0 0 14.56 37.56c5.78 10.13 14.87 9.45 19.64 7.33 4.21-1.87 10-6.92 3.75-20.11a178.29 178.29 0 0 1-15.76-53.13l46.82-59.83-24.66 74.11c58.23-42.4 157.38-61.76 236.25-38.59 34.2 10.05 67.45.69 84.74-23.84.72-1 1.2-2.16 1.85-3.22a156.09 156.09 0 0 1 2.8 28.43c0 23.3-3.69 52.93-14.88 81.64-2.52 6.46 1.76 14.5 8.6 15.74 7.42 1.57 15.33-3.1 18.37-11.15C429 443 434 414 434 382.32c0-38.58-13-77.46-35.91-110.92zM142.37 128.58l-15.7-.93-1.39 21.79 13.13.78a93 93 0 0 0 .32 19.57l-22.38-1.34a12.28 12.28 0 0 1-11.76-12.79L107 119c1-12.17 13.87-11.27 13.26-11.32l29.11 1.73a144.35 144.35 0 0 0-7 19.17zm148.42 172.18a10.51 10.51 0 0 1-14.35-1.39l-9.68-11.49-34.42 27a8.09 8.09 0 0 1-11.13-1.08l-15.78-18.64a7.38 7.38 0 0 1 1.34-10.34l34.57-27.18-14.14-16.74-17.09 13.45a7.75 7.75 0 0 1-10.59-1s-3.72-4.42-3.8-4.53a7.38 7.38 0 0 1 1.37-10.34L214 225.19s-18.51-22-18.6-22.14a9.56 9.56 0 0 1 1.74-13.42 10.38 10.38 0 0 1 14.3 1.37l81.09 96.32a9.58 9.58 0 0 1-1.74 13.44zM187.44 419a18 18 0 1 0 18 18 18 18 0 0 0-18-18z"/></symbol>
  <symbol id="brand-google-play" viewBox="0 0 512 512"><path d="M325.3 234.3L104.6 13l280.8 161.2-60.1 60.1zM47 0C34 6.8 25.3 19.2 25.3 35.3v441.3c0 16.1 8.7 28.5 21.7 35.3l256.6-256L47 0zm425.2 225.6l-58.9-34.1-65.7 64.5 65.7 64.5 60.1-34.1c18-14.3 18-46.5-1.2-60.8zM104.6 499l280.8-161.2-60.1-60.1L104.6 499z"/></symbol>
  <symbol id="brand-youtube" viewBox="0 0 576 512"><path d="M549.655 124.083c-6.281-23.65-24.787-42.276-48.284-48.597C458.781 64 288 64 288 64S117.22 64 74.629 75.486c-23.497 6.322-42.003 24.947-48.284 48.597-11.412 42.867-11.412 132.305-11.412 132.305s0 89.438 11.412 132.305c6.281 23.65 24.787 41.5 48.284 47.821C117.22 448 288 448s170.78 0 213.371-11.486c23.497-6.321 42.003-24.171 48.284-47.821 11.412-42.867 11.412-132.305 11.412-132.305s0-89.438-11.412-132.305zm-317.51 213.508V175.185l142.739 81.205-142.739 81.201z"/></symbol>
  <symbol id="brand-google-scholar" viewBox="0 0 384 512"><path d="M343.75868 106.66243V79.430205L363.52365 63.999997H149.63354L20.476345 176.2736h85.656075c-.15534 2.12494-.21914 4.04644-.21914 6.22563 0 20.84472 7.2192 38.08662 21.67203 51.86089 14.45284 13.79702 32.25124 20.64784 53.32651 20.64784 4.92319 0 9.75059-.36794 14.43842-1.02419-2.90722 6.50082-4.37457 12.52302-4.37457 18.14228 0 9.87526 4.49924 20.4304 13.46715 31.6418-39.23377 2.6705-68.06112 9.73264-86.43702 21.16322-10.53108 6.49907-19.000207 14.70396-25.390349 24.5311-6.390569 9.89933-9.577754 20.51525-9.577754 31.9616 0 9.64822 2.062375 18.33611 6.21907 26.06233 4.156694 7.7263 9.577757 14.07047 16.312223 18.98408 6.71825 4.96781 14.46899 9.10088 23.219 12.46874 8.73429 3.34378 17.40643 5.71858 26.06106 7.06258 8.62707 1.34222 17.20471 1.9985 25.70579 1.9985 13.46887 0 26.95353-1.73428 40.54711-5.18707 13.56165-3.48461 26.28022-8.64143 38.17105-15.4927 11.85935-6.80488 21.51545-16.0865 28.9219-27.7183 7.39024-11.67998 11.09457-24.80499 11.09457-39.33613 0-11.01584-2.24964-21.03852-6.7502-30.14073-4.46864-9.07202-9.93785-16.54102-16.45271-22.34403-6.5008-5.81263-12.99987-11.15539-19.51512-15.9679-6.50083-4.84488-12.00021-9.75058-16.46884-14.8129-4.4848-5.04657-6.73444-10.05419-6.73444-14.98395 0-4.92145 1.73422-9.67183 5.21588-14.26559 3.45451-4.6095 7.67376-9.04795 12.60967-13.30571 4.93756-4.24944 9.87523-8.96788 14.79665-14.13302 4.92147-5.14719 9.14072-11.82739 12.60971-20.00822 3.48467-8.17907 5.20318-17.44489 5.20318-27.75679 0-13.4527-2.54714-24.46065-7.54735-33.31348-.59369-1.02243-1.21757-1.80338-1.87511-3.02225l56.90745-46.672136v17.118526c-7.39373.92969-6.62422 5.34582-6.62422 10.6352v128.66719c0 5.95832 4.8751 10.83382 10.83386 10.83382h3.98869c5.95835 0 10.83386-4.87506 10.83386-10.83382V117.29282c0-5.27669.77741-9.68801-6.56167-10.63039zM236.39865 329.14114c1.14099.7503 3.7039 2.78075 7.7184 6.03838 4.0495 3.24319 6.797 5.69582 8.26567 7.41432 1.43851 1.66381 3.5792 4.16501 6.37617 7.54734 2.81268 3.3744 4.7184 6.30394 5.71853 8.73425 1.00016 2.4767 2.01603 5.46089 3.04636 8.94556.98567 3.44488 1.48486 6.97595 1.48486 10.56169 0 17.04813-6.56338 29.68007-19.65604 37.85915-13.125 8.18083-28.76651 12.27368-46.93767 12.27368-9.18709 0-18.2031-1.09289-27.06247-3.1951-8.84322-2.11665-17.31192-5.3362-25.39035-9.60185-8.07846-4.25771-14.57754-10.20337-19.50072-17.79659-4.93764-7.64012-7.40645-16.41464-7.40645-26.24962 0-10.32022 2.79692-19.28987 8.42233-26.90588 5.59343-7.62564 12.93774-13.3919 22.03208-17.3154 9.0624-3.94582 18.24946-6.74232 27.56166-8.39827 9.31221-1.7023 18.79679-2.555 28.43842-2.555 4.46862 0 7.93582.25115 10.40465.69607.45456.21918 3.03188 2.07025 7.73456 5.56326 4.70401 3.46237 7.62565 5.59519 8.75047 6.38401zm-3.35823-100.5779c-7.40648 8.85938-17.73454 13.2882-30.95363 13.2882-11.85933 0-22.29766-4.76482-31.26554-14.31195-8.99984-9.52309-15.42235-20.32803-19.34408-32.43061-3.93752-12.10871-5.90585-23.98423-5.90585-35.648 0-13.6942 3.59542-25.35184 10.7809-34.97598 7.18727-9.64952 17.49915-14.48477 30.93786-14.48477 11.87507 0 22.37423 5.03825 31.43704 15.15677 9.09434 10.08482 15.60961 21.41303 19.5169 33.96799 3.92176 12.5392 5.87345 24.52979 5.87345 35.98399 0 13.44658-3.70256 24.60984-11.07663 33.45436z"/></symbol>
</svg>
